PathFileType	4	(X/Y/Z)	C:/Users/beibeiliu/ov580/test_trc/User2\sequence.32_training_dense_left.trc
DataRate	CameraRate	NumFrames	NumMarkers	Units	OrigDataRate	OrigDataStartFrame	OrigNumFrames
120	120	24	19	mm	120	124	330
Frame#	Time	ThumbCMC			ThumbMCP			ThumbIP			ThumbTip			IndexMCP			IndexPIP			IndexTip			MiddleMCP			MiddlePIP			MiddleTip			RingMCP			RingPIP			RingTip			PinkyMCP			PinkyPIP			PinkyTip			BackHand1			BackHand2			BackHand3	
		X0	Y0	Z0	X1	Y1	Z1	X2	Y2	Z2	X3	Y3	Z3	X4	Y4	Z4	X5	Y5	Z5	X6	Y6	Z6	X7	Y7	Z7	X8	Y8	Z8	X9	Y9	Z9	X10	Y10	Z10	X11	Y11	Z11	X12	Y12	Z12	X13	Y13	Z13	X14	Y14	Z14	X15	Y15	Z15	X16	Y16	Z16	X17	Y17	Z17	X18	Y18	Z18	
123	1.025	-132.719	17.5947	104.115	-105.924	7.44677	80.9962	-86.49	1.23242	53.8224	-82.0154	-4.32062	27.5222	-128.798	76.6994	49.9127	-112.147	89.6142	22.1893	-90.9597	76.6236	-1.50604	-155.286	75.5444	25.9343	-142.182	79.1093	-8.64137	-118.904	58.5672	-28.9617	-163.645	51.7929	13.4764	-145.028	34.2857	-8.78903	-140.163	6.89673	15.9744	-180.037	31.8667	13.8981	-155.16	17.2173	-3.92983	-149.73	-7.86061	13.3724	-195.173	36.7233	65.0502	-204.083	27.911	92.4929	-173.019	43.0139	96.8028	
124	1.03333	-134.99	15.5599	101.778	-110.758	4.156	79.7539	-85.541	-2.05615	52.8047	-85.0274	-7.16424	26.4026	-132.727	73.1687	45.4364	-117.024	85.521	21.0524	-96.7611	74.8695	-4.716	-155.901	72.7213	26.337	-143.501	76.7347	-10.9151	-122.611	56.6928	-32.4999	-168.003	48.7511	10.9899	-147.862	35.1676	-10.0897	-141.036	5.29857	15.7938	-184.787	28.3073	12.0226	-158.979	13.5013	-5.50534	-151.641	-10.7473	14.762	-192.5	38.4088	64.2243	-207.917	25.2959	94.562	-171.402	40.18	96.382	
125	1.04167	-135.594	13.6388	99.9254	-110.466	-0.624145	79.7474	-90.2953	-8.33037	51.1312	-89.3802	-12.4382	22.661	-134.052	68.4873	43.1843	-116.916	81.6041	18.0293	-100.446	69.6023	-10.7198	-158.913	69.9223	19.4269	-147.949	71.3312	-14.5059	-129.469	48.2621	-38.6861	-172.572	44.9549	7.25151	-149.902	27.2245	-11.7653	-147.692	-1.82269	10.0819	-188.312	24.2594	11.586	-164.019	9.18815	-7.71674	-157.7	-15.388	12.177	-197.538	34.3699	61.9798	-207.425	25.7039	91.885	-171.645	39.5477	93.427	
126	1.05	-136.481	9.32962	95.2873	-116.116	-4.66296	74.1817	-93.7306	-13.5151	42.2862	-95.8206	-19.6419	15.7983	-135.311	66.532	33.8542	-120.354	74.9227	9.53069	-106.865	60.5637	-21.1626	-166.614	61.1111	18.4705	-153.317	67.8379	-15.5063	-137.52	45.0904	-42.2895	-177.163	40.6465	0.759133	-160.767	23.0149	-16.1965	-152.851	-5.00343	3.42124	-195.852	19.4032	8.65208	-172.257	5.0953	-9.61188	-165.297	-20.165	12.5545	-199.302	33.7977	59.7076	-208.91	20.3244	93.9803	-174.572	38.942	87.4187	
127	1.05833	-138.153	7.02271	91.7803	-114.363	-10.7123	69.8095	-101.744	-20.3352	38.8505	-101.119	-26.7847	7.27012	-140.968	59.9913	26.888	-125.298	68.0728	3.32611	-112.367	54.5477	-27.9669	-166.578	59.6002	11.7384	-158.888	59.6057	-23.2056	-145.532	34.5859	-49.1437	-181.704	35.9916	0.345178	-169.638	17.7655	-20.0309	-157.135	-11.0107	3.74266	-201.26	13.4746	6.52234	-182.147	-7.06388	-12.6879	-171.013	-25.7412	14.0855	-201.569	28.5923	62.9855	-209.714	22.6153	90.1223	-176.153	36.2288	83.4463	
128	1.06667	-140.769	3.31967	87.645	-118.694	-14.9517	64.4664	-105.837	-26.6763	32.7372	-106.794	-36.0197	7.20997	-146.938	52.4943	22.9809	-131.655	60.9928	-6.03586	-117.974	49.4007	-29.5027	-174.629	52.3031	5.63808	-165.741	53.1722	-28.73	-156.46	25.6562	-53.0274	-188.788	29.3559	-4.45003	-176.891	11.4509	-23.3877	-165.272	-17.6282	1.62052	-205.213	7.41866	7.78869	-188.018	-16.4145	-12.3495	-176.137	-30.514	17.7029	-205.114	24.5544	57.8087	-213.05	18.5959	91.338	-176.173	32.7657	84.3999	
129	1.075	-141.723	0.530207	84.0843	-123.175	-18.6408	59.8184	-109.898	-30.9198	26.7156	-113.835	-40.109	6.1378	-147.432	48.0242	21.2707	-134.078	55.8595	-11.9264	-124.028	44.1397	-35.2903	-181.36	46.3696	5.00526	-171.762	46.6111	-32.1511	-162.963	20.3749	-56.5726	-194.235	23.9653	-5.3357	-182.945	3.92593	-25.1965	-172.173	-21.9792	-0.463272	-212.172	2.5658	4.85064	-191.832	-20.3498	-11.556	-179.808	-35.0294	17.6444	-207.807	22.9107	57.8651	-212.017	18.0211	90.5543	-175.463	30.5837	79.6312	
130	1.08333	-144.207	-0.640416	79.4527	-123.941	-19.6042	54.4587	-113.262	-34.8814	24.8637	-116.275	-44.0294	0.0172774	-150.643	45.0513	17.9488	-140.959	52.4355	-14.8765	-131.156	37.381	-42.9323	-182.242	44.9992	2.83445	-178.554	43.8957	-33.1737	-168.75	17.6239	-57.274	-200.739	20.6601	-2.83971	-183.224	-1.03044	-24.6856	-175.219	-25.4416	2.25899	-213.044	-1.04247	2.93087	-196.217	-23.6911	-10.8382	-185.862	-38.1279	17.4308	-212.149	22.239	53.409	-214.812	13.8831	88.1142	-179.291	28.0412	80.1212	
131	1.09167	-147.48	-2.03219	80.0679	-127.743	-20.9978	54.8626	-115.014	-36.1855	26.9891	-121.117	-46.4558	0.279671	-153.607	44.9861	13.0204	-143.71	51.0305	-13.8994	-137.45	36.2689	-42.9371	-185.98	44.9582	0.527355	-181.267	41.9141	-35.1999	-173.155	12.5807	-59.9306	-202.044	18.2078	-5.69003	-190.543	-4.49578	-26.2649	-181.49	-27.6814	-0.751094	-214.34	-1.80119	4.48988	-200.665	-27.724	-10.184	-188.625	-42.307	19.7684	-215.16	19.1258	55.6832	-214.941	16.3011	88.7995	-182.181	26.9108	79.0339	
132	1.1	-146.469	-1.37219	78.201	-124.528	-22.4793	53.9145	-114.832	-36.4003	24.2	-120.129	-47.6081	1.24367	-156.652	43.2291	12.3158	-147.138	49.3135	-17.9202	-136.851	35.6574	-43.8226	-186.666	43.9685	-0.731125	-184.041	39.8762	-36.3679	-173.349	10.5694	-60.9458	-198.775	18.9667	-6.78465	-190.288	-6.04364	-25.3722	-178.136	-27.1646	-0.185178	-214.763	-2.75981	4.26095	-198.886	-28.7697	-9.49842	-190.038	-41.2769	19.7655	-211.824	18.3874	53.2768	-215.081	13.8416	91.836	-179.868	29.369	74.0829	
133	1.10833	-142.396	-1.15412	78.3803	-123.917	-21.7908	57.6104	-115.673	-37.0213	26.5142	-120.342	-47.398	-2.67274	-154.467	43.3023	14.5728	-146.088	48.2749	-16.6909	-134.994	34.2226	-45.0802	-186.522	42.7609	1.32838	-179.084	41.57	-34.5462	-173.953	13.4814	-59.3525	-204.195	17.3121	-3.66912	-188.669	-2.50412	-24.8527	-177.432	-26.9252	2.72628	-217.7	-4.39928	4.18313	-201.344	-29.3213	-11.2847	-188.237	-40.2447	15.6692	-212.792	19.0962	58.4546	-215.713	13.8542	90.6652	-182.192	27.7014	77.3705	
134	1.11667	-144.413	-2.5088	81.5873	-126.634	-21.4232	53.6731	-116.051	-36.4813	25.2096	-120.568	-47.6744	0.688412	-154.757	43.4564	14.6169	-138.947	49.105	-17.2635	-135.377	35.3281	-42.8505	-183.152	43.3363	2.13777	-180.857	42.2475	-32.807	-166.698	13.9722	-59.0269	-201.678	17.2269	-4.42649	-185.839	-3.7305	-24.69	-178.009	-28.5111	3.94205	-215.679	-3.82484	0.853564	-194.644	-27.6543	-10.3608	-184.18	-39.649	17.2804	-211.576	16.9306	53.1512	-213.683	15.8445	86.8199	-179.89	29.3669	75.9136	
135	1.125	-144.284	-1.43415	84.676	-124.155	-21.1432	58.7077	-114.417	-36.2567	25.5837	-116.029	-47.7509	0.223878	-152.953	44.8697	11.5253	-142.988	48.4433	-18.176	-133.826	34.9736	-44.5868	-182.99	41.9249	2.38819	-176.992	41.9454	-32.0335	-167.732	11.0384	-60.6693	-194.702	17.2876	-5.94452	-184.385	-7.32013	-24.8063	-172.899	-27.4536	3.44789	-212.661	-4.98934	6.39152	-193.674	-29.5294	-11.0686	-182.572	-42.8009	16.0293	-210.159	16.7765	55.4502	-218.039	11.0743	84.687	-180.538	27.5651	76.8093	
136	1.13333	-146.995	0.322966	80.1145	-123.348	-18.1437	56.498	-110.362	-33.4231	30.8134	-113.16	-44.6202	1.72028	-152.876	45.8265	12.0926	-143.778	50.3156	-16.4454	-133.15	37.7635	-42.1346	-183.007	41.7661	1.34365	-175.299	40.5173	-34.7278	-160.296	13.8681	-59.303	-196.536	14.4816	-4.67591	-182.518	-3.14082	-25.188	-170.981	-29.2517	3.13373	-209.672	-7.33413	0.248699	-192.178	-31.7701	-11.5574	-178.919	-42.5502	20.6928	-209.497	14.0845	56.5842	-218.748	9.82155	85.1927	-183.992	26.9182	75.4753	
137	1.14167	-148.016	5.94588	82.2971	-121.311	-11.3613	62.8382	-109.76	-26.3614	31.1828	-109.728	-38.7662	6.44275	-156.739	45.7134	15.7392	-141.142	52.8365	-15.2153	-127.536	39.9845	-40.5587	-183.918	37.7164	3.3107	-175.085	38.3589	-36.2141	-161.092	11.5912	-59.3889	-197.22	11.0783	-4.49107	-180.571	-7.53125	-25.3999	-164.039	-28.0922	4.50958	-205.257	-11.2292	1.88569	-183.965	-34.2267	-7.92915	-174.168	-42.1259	19.8604	-211.559	12.4291	54.5126	-218.529	6.34729	85.3443	-184.616	29.7264	75.4539	
138	1.15	-149.196	11.9397	87.0223	-121.851	-1.98412	65.8496	-101.974	-15.3664	33.524	-100.074	-29.0721	11.7863	-160.681	48.732	12.5232	-148.552	53.4904	-18.7709	-128.781	41.3381	-42.2782	-188.868	35.5898	-2.63821	-176.364	32.8358	-37.9165	-157.033	10.0892	-58.2928	-193.857	7.86021	-4.09677	-172.326	-9.00684	-23.2891	-159.87	-29.9782	3.54769	-197.668	-14.7568	2.25142	-174.743	-36.9817	-4.17101	-167.719	-40.6819	24.8692	-214.166	9.12118	49.03	-219.004	4.30545	86.6066	-187.684	30.9707	72.98	
139	1.15833	-148.301	20.8835	86.0386	-119.528	8.66761	66.2523	-100.545	-4.18733	39.6216	-95.9474	-17.2522	20.3961	-163.536	50.8107	11.2113	-150.221	55.275	-19.6247	-135.079	43.095	-40.7596	-191.598	30.5679	-6.2053	-179.397	29.0896	-36.3427	-153.551	9.91906	-56.6424	-189.1	1.1451	-6.96868	-164.491	-16.2799	-19.9526	-149.901	-26.4696	11.599	-195.159	-21.6607	7.11296	-166.98	-38.6702	-0.317325	-163.946	-40.0486	33.8814	-212.047	4.19876	53.4529	-220.56	2.17202	80.4318	-194	28.1722	74.1135	
140	1.16667	-152.976	24.7702	85.1527	-121.047	15.1785	70.0158	-97.605	4.33117	44.3656	-89.2608	-10.2515	20.4085	-169.431	47.6975	7.64039	-156.052	53.075	-22.9904	-137.313	42.2052	-43.1649	-189.458	27.66	-3.54126	-178.467	23.4214	-38.7749	-148.017	5.62295	-56.8451	-185.923	-1.13177	-6.58324	-156.999	-16.8194	-16.8193	-144.958	-23.6642	15.6641	-188.448	-26.511	5.72065	-158.948	-39.8437	4.6266	-155.682	-35.0434	34.7347	-211.464	1.19076	50.9828	-219.831	-0.9521	84.94	-195.766	32.3958	70.5515	
141	1.175	-153.488	27.3502	86.3625	-123.97	16.3136	68.6297	-95.7888	9.49294	47.257	-88.9797	-5.85546	26.7441	-169.858	48.8183	9.93881	-159.106	54.0222	-19.3824	-134.325	44.5603	-43.1505	-191.894	25.1614	-4.65452	-173.779	24.2129	-41.7232	-147.734	7.30242	-56.961	-184.995	-6.37377	-9.80481	-158.345	-19.5748	-16.8279	-144.556	-26.5835	14.2852	-185.417	-30.1812	2.52836	-155.825	-40.7334	4.90336	-151.611	-33.7422	41.2229	-211.109	0.0782828	46.0493	-221.71	-2.04992	78.9103	-197.964	27.5668	70.316	
142	1.18333	-154.256	28.2211	87.903	-124.412	17.3414	68.2526	-97.3618	8.83737	46.0416	-89.7283	-6.32629	24.5707	-173.058	48.177	8.35624	-161.44	51.1274	-23.1578	-139.619	41.8016	-42.7487	-190.196	26.5042	-7.95986	-177.665	20.5073	-41.3003	-146.648	1.31785	-57.173	-184.709	-4.64117	-7.43938	-158.049	-20.5654	-17.1762	-142.508	-21.2289	18.9866	-184.744	-33.1311	2.62926	-153.461	-38.7654	6.65348	-149.503	-36.09	40.3157	-212.219	-0.0772614	47.316	-223.634	-4.40076	77.5242	-201.064	26.6783	70.0842	
143	1.19167	-156.645	28.1231	84.2163	-127.013	15.9222	65.9866	-99.4443	8.59947	45.5489	-90.6918	-6.515	23.4355	-173.984	46.9186	6.30687	-162.873	51.4783	-23.3444	-138.494	41.2335	-43.0463	-193.535	22.1965	-11.218	-176.926	17.0856	-43.4868	-145.217	3.25239	-57.506	-186.186	-7.55856	-8.03615	-155.542	-22.7868	-15.9608	-142.759	-24.8641	14.4224	-186.845	-34.178	6.24264	-152.748	-39.8462	7.92003	-151.594	-34.0826	43.4351	-213.625	0.690791	44.8097	-224.008	-6.67059	77.8471	-201.569	24.435	68.6221	
144	1.2	-158.023	26.1172	83.8017	-125.176	18.0747	64.1197	-99.9065	8.44933	42.5113	-88.3205	-5.82066	19.4488	-176.21	45.7556	5.65272	-160.637	51.8635	-23.9966	-134.993	40.6467	-43.9421	-194.516	20.8529	-9.49092	-179.57	17.2268	-41.8636	-144.939	3.34402	-57.0937	-182.885	-8.14605	-12.236	-158.266	-20.3722	-18.6079	-144.131	-26.4125	18.7369	-184.121	-32.312	6.34346	-151.749	-42.0029	10.8139	-150.142	-36.0109	39.9056	-213.801	-1.78003	45.183	-224.541	-7.02469	77.9721	-201.236	25.7579	65.6057	
145	1.20833	-156.712	27.0401	79.9162	-126.558	16.4434	63.5655	-100.144	6.98064	40.1366	-90.3552	-7.34363	19.491	-175.656	45.4196	1.39626	-163.124	49.7644	-24.4369	-139.086	40.3464	-42.6024	-194.522	18.288	-9.54854	-179.84	14.4035	-42.395	-144.22	1.19985	-58.478	-185.315	-8.10437	-8.24701	-157.243	-23.2138	-17.4105	-145.099	-25.5644	18.4006	-183.186	-37.7542	1.08394	-152.77	-45.2448	9.45112	-151.856	-37.7791	41.4887	-214.642	-6.83059	45.3181	-225.978	-9.37764	77.2344	-202.01	24.476	67.925	
146	1.21667	-161.053	22.3371	80.3645	-129.147	13.6645	63.2933	-98.785	8.60902	45.3332	-92.2246	-8.50162	22.244	-177.446	41.6545	1.41608	-162.762	49.3292	-22.9766	-135.284	36.568	-45.7617	-194.136	19.6298	-9.21978	-179.111	12.9136	-42.867	-147.342	-0.83262	-56.7873	-184.371	-11.108	-12.0986	-154.09	-25.1834	-16.6149	-143.588	-28.7894	14.049	-183.472	-39.062	3.40468	-152.138	-43.5423	7.92319	-150.56	-34.5994	41.3751	-214.304	-8.08476	45.8724	-225.436	-10.3663	75.8317	-206.222	21.8452	66.6514	
